<svg height="512pt" viewBox="0 -23 512 512" width="512pt" xmlns="http://www.w3.org/2000/svg"><path d="m195.027344 162.699219h5.566406c4.140625 0 7.5-3.359375 7.5-7.5 0-4.144531-3.359375-7.5-7.5-7.5h-.722656v-12.046875c0-4.140625-3.355469-7.5-7.5-7.5-4.140625 0-7.5 3.359375-7.5 7.5v16.890625c0 5.601562 4.558594 10.15625 10.15625 10.15625zm0 0"/><path d="m225.46875 183.59375c2.214844-3.5 1.175781-8.136719-2.324219-10.351562-3.503906-2.210938-8.132812-1.171876-10.351562 2.328124-3.375 5.332032-10.800781 8.78125-18.917969 8.78125s-15.542969-3.449218-18.917969-8.78125c-2.214843-3.5-6.847656-4.539062-10.347656-2.328124-3.5 2.214843-4.542969 6.851562-2.328125 10.351562 6.148438 9.71875 18.257812 15.757812 31.59375 15.757812 13.339844 0 25.445312-6.039062 31.59375-15.757812zm0 0"/><path d="m232.539062 135.140625c4.140626 0 7.5-3.359375 7.5-7.5v-7.695313c0-4.144531-3.359374-7.5-7.5-7.5-4.144531 0-7.5 3.355469-7.5 7.5v7.695313c0 4.140625 3.355469 7.5 7.5 7.5zm0 0"/><path d="m162.707031 119.945312c0-4.144531-3.355469-7.5-7.5-7.5-4.140625 0-7.5 3.355469-7.5 7.5v7.691407c0 4.144531 3.359375 7.5 7.5 7.5 4.144531 0 7.5-3.355469 7.5-7.5zm0 0"/><path d="m497.71875 404.234375h-11.082031c2.566406-4.703125 3.988281-10.058594 3.988281-15.660156v-17.425781h5.117188c8.828124 0 16.007812-7.179688 16.007812-16.003907v-9.820312c0-8.828125-7.179688-16.007813-16.007812-16.007813h-5.816407c-3.523437-18.636718-19.929687-32.777344-39.574219-32.777344h-33.222656v-4.121093h5.375c4.140625 0 7.5-3.355469 7.5-7.5s-3.359375-7.5-7.5-7.5h-25.75c-4.144531 0-7.5 3.355469-7.5 7.5s3.355469 7.5 7.5 7.5h5.375v4.121093h-33.226562c-7.691406 0-14.890625 2.171876-21.011719 5.929688-4.738281-14.082031-14.964844-25.945312-28.355469-32.933594-26.535156-13.847656-70.578125-24.597656-75.316406-25.464844-6.191406-1.132812-10.683594-6.550781-10.683594-12.867187v-6.582031c3.796875-2.183594 7.566406-4.664063 11.214844-7.453125 14.667969-11.207031 32.152344-31.023438 32.152344-61.75l.011718-2.503907c3.425782-.109374 6.679688-.898437 9.640626-2.238281v80.628907c0 4.144531 3.355468 7.5 7.5 7.5 4.140624 0 7.5-3.355469 7.5-7.5v-150.226563c0-22.726563-9.628907-44.550781-26.410157-59.875-16.785156-15.324219-39.390625-22.9375-62.027343-20.871094-13.125 1.199219-25.398438 1.195313-38.488282 0-22.636718-2.0625-45.242187 5.546875-62.027344 20.871094-16.78125 15.324219-26.410156 37.148437-26.410156 59.875v150.261719c0 4.144531 3.359375 7.5 7.5 7.5 4.144532 0 7.5-3.355469 7.5-7.5v-80.660156c2.957032 1.335937 6.214844 2.125 9.640625 2.234374l.011719 2.476563c0 30.753906 17.484375 50.570313 32.152344 61.777344 3.648437 2.789062 7.417968 5.269531 11.214844 7.453125v6.582031c0 6.316406-4.492188 11.730469-10.683594 12.867187-3.816406.707032-47.527344 11.285157-75.316406 25.464844-19.300782 9.851563-31.324219 29.363282-31.324219 51.03125v83.671875h-22.605469c-7.875-.003906-14.28125 6.40625-14.28125 14.28125v32.914063c0 7.875 6.40625 14.28125 14.28125 14.28125h483.4375c7.875 0 14.28125-6.40625 14.28125-14.28125v-32.914063c0-7.875-6.40625-14.285156-14.28125-14.285156zm-7.09375-59.917969h5.117188c.558593 0 1.007812.453125 1.007812 1.007813v9.820312c0 .554688-.453125 1.003907-1.007812 1.003907h-5.117188zm-147 0h22.765625c4.140625 0 7.5-3.355468 7.5-7.5 0-4.144531-3.359375-7.5-7.5-7.5h-21.628906c3.203125-10.285156 12.8125-17.777344 24.140625-17.777344h81.445312c11.328125 0 20.9375 7.492188 24.140625 17.777344h-73.203125c-4.140625 0-7.5 3.355469-7.5 7.5 0 4.144532 3.359375 7.5 7.5 7.5h74.339844v44.257813c0 6.628906-3.683594 12.632812-9.488281 15.660156h-113.023438c-5.808593-3.027344-9.488281-9.03125-9.488281-15.660156zm-65.011719-75.78125c11.730469 3.996094 23.175781 8.816406 34.128907 14.375 12.1875 6.1875 20.6875 18.117188 22.664062 31.558594-2.953125 4.414062-5.058594 9.441406-6.082031 14.847656h-5.816407c-8.828124 0-16.007812 7.179688-16.007812 16.007813v9.820312c0 8.824219 7.179688 16.003907 16.007812 16.003907h5.117188v17.425781c0 5.601562 1.421875 10.957031 3.988281 15.660156h-27.808593v-47.8125c0-6.417969-3.46875-12.34375-9.058594-15.464844-10.402344-5.8125-17.125-12.46875-17.125-16.960937zm50.011719 75.78125v11.832032h-5.117188c-.558593 0-1.007812-.449219-1.007812-1.003907v-9.820312c0-.554688.453125-1.007813 1.007812-1.007813zm-74.984375-82.949218c3.351563.78125 6.679687 1.625 9.972656 2.53125v42.445312c-.269531-.011719-9.972656-.019531-9.972656-.019531zm32.914063-133.910157c0 5.476563-4.226563 9.984375-9.582032 10.433594l.109375-29.355469c5.304688.5 9.472657 4.984375 9.472657 10.421875zm-185.363282 0v-8.5c0-5.4375 4.164063-9.921875 9.46875-10.421875l.113282 29.355469c-5.359376-.449219-9.582032-4.957031-9.582032-10.433594zm9.40625-35.585937.007813 1.640625c-3.34375.136719-6.519531.917969-9.414063 2.226562v-14.660156c0-18.519531 7.84375-36.308594 21.523438-48.796875 13.679687-12.492188 32.105468-18.683594 50.550781-17.007812 13.945313 1.269531 27.28125 1.265624 41.210937 0 18.445313-1.675782 36.871094 4.515624 50.550782 17.007812 13.679687 12.488281 21.523437 30.277344 21.523437 48.796875v14.660156c-2.890625-1.308593-6.070312-2.089843-9.410156-2.226562l.003906-1.640625c.015625-3.925782-3.007812-7.195313-6.921875-7.507813-.40625-.03125-41.117187-3.570312-71.046875-33.503906-2.929687-2.925781-7.679687-2.925781-10.609375 0-29.929687 29.933594-70.640625 33.472656-71.035156 33.503906-3.921875.296875-6.949219 3.574219-6.933594 7.507813zm41.503906 113.378906c-11.980468-9.152344-26.257812-25.234375-26.257812-49.886719l-.21875-56.953125c13.238281-2.210937 42.84375-9.445312 68.246094-31.949218 25.40625 22.503906 55.011718 29.738281 68.25 31.949218l-.21875 56.980469c0 24.625-14.28125 40.703125-26.257813 49.859375-14.804687 11.3125-31.984375 16.71875-41.773437 16.980469-9.785156-.261719-26.964844-5.667969-41.769532-16.980469zm-7.296874 53.84375c.484374-.09375.964843-.183594 1.441406-.269531 13.125-2.421875 22.703125-13.757813 22.957031-27.070313 9.316406 3.566406 17.996094 5.339844 24.507813 5.480469h.160156.164062c6.511719-.140625 15.191406-1.914063 24.503906-5.480469.238282 12.328125 8.464844 22.957032 20.101563 26.386719v9.574219c-12.882813 4.910156-29.03125 7.582031-46.085937 7.582031-17.609376 0-34.699219-2.972656-47.75-8.234375zm0 23.964844c13.871093 4.703125 30.40625 7.238281 47.75 7.238281 16.585937 0 32.542968-2.34375 46.085937-6.695313v22.722657h-93.832031v-23.265625zm-24.972657-17.9375c3.292969-.964844 6.621094-1.871094 9.972657-2.710938v43.914063s-9.699219.007812-9.972657.019531zm0 58.875v-1.847656c0-.453126.371094-.824219.824219-.824219h142.140625c.421875 0 .769531.316406.816406.726562 0 .035157.003907.074219.007813.109375v1.835938c0 13.386718 13.492187 23.734375 24.8125 30.058594.84375.472656 1.371094 1.378906 1.371094 2.367187v47.816406h-196.15625v-47.816406c0-.988281.527343-1.894531 1.375-2.367187 11.316406-6.324219 24.808593-16.671876 24.808593-30.058594zm-67.945312-3.429688c0-15.988281 8.855469-30.417968 23.117187-37.65625 9.621094-4.886718 19.617188-9.199218 29.828125-12.878906v53.964844c0 4.492187-6.722656 11.148437-17.125 16.960937-5.589843 3.121094-9.058593 9.046875-9.058593 15.464844v47.8125h-26.761719zm445.113281 130.152344h-482v-31.480469h482zm0 0"/></svg>